<svg width="132" height="42" viewBox="0 0 132 42" fill="none" xmlns="http://www.w3.org/2000/svg">
<path d="M9.91725 33.7289L1 9.32746H9.15141L15.3134 25.9824L21.5282 9.21303L31.6162 9.27465L37.6549 25.9296H37.9454L43.9313 9.27465H52.206L43.3327 33.456L64.3979 8.74648H74.7236L90.5598 27.338L98.2447 21L74.257 1H86.3961L125.102 33.2007H112.963L104.345 25.9296L95.6655 33.2007H85.3398C83.7201 31.2817 80.463 27.4525 80.4102 27.4525H63.3503L67.6285 22.4084H76.1936L69.5651 14.7852L47.162 41H36.8979L43.0951 33.7289H32.4349L26.5722 17.9542L20.7095 33.7289H9.91725Z" fill="white"/>
<path d="M1 9.32746L9.91725 33.7289H20.7095L26.5722 17.9542L32.4349 33.7289H43.2271L52.206 9.27465H43.9313L37.9454 25.9296H37.6549L31.6162 9.27465L21.5282 9.21303L15.3134 25.9824L9.15141 9.32746H1V9.32746ZM36.8979 41L64.3979 8.74648H74.7236L90.5598 27.338L98.2447 21L74.257 1H86.3961L125.102 33.2007H112.963L104.345 25.9296L95.6655 33.2007H85.3398C83.7201 31.2817 80.463 27.4525 80.4102 27.4525H63.3503L67.6285 22.4084H76.1937L69.5651 14.7852L47.162 41H36.8979Z" stroke="white"/>
<path d="M113.025 19.3627L106.863 14.1954L112.725 9.27466H124.926L113.025 19.3627Z" fill="#F78E1E"/>
<path d="M128.535 9.57394H127.717V11.8011H127.171V9.57394H126.361V9.125H128.535V9.57394ZM129.565 9.125L130.252 11.0616L130.93 9.125H131.652V11.7923H131.097V11.0616L131.15 9.80282L130.428 11.7923H130.049L129.328 9.80282L129.38 11.0616V11.7923H128.826V9.125H129.565Z" fill="white"/>
</svg>
